<svg width="134" height="116" viewBox="0 0 134 116" fill="none" xmlns="http://www.w3.org/2000/svg">
<g filter="url(#filter0_d_126_207)">
<path fill-rule="evenodd" clip-rule="evenodd" d="M12.6697 50.7797C8.79092 45.4952 6.5 38.9726 6.5 31.9149C6.5 14.2888 20.7888 0 38.4149 0C50.5494 0 61.1022 6.77219 66.5 16.7432C71.8978 6.77219 82.4506 0 94.5851 0C112.211 0 126.5 14.2888 126.5 31.9149C126.5 37.4863 125.072 42.7242 122.563 47.2829C116.476 60.8965 65.9159 107.234 65.9159 107.234C65.9159 107.234 23.3888 68.091 12.6697 50.7797Z" fill="#BD4141"/>
<path d="M6 54H39.2457C39.6922 54 40.0846 53.704 40.2072 53.2747L43.741 40.9065C44.036 39.8741 45.5292 39.969 45.6911 41.0304L48.7736 61.2381C48.9372 62.3107 50.4522 62.3915 50.7291 61.3425L57.6269 35.2033C57.9097 34.1316 59.4668 34.2475 59.5878 35.3492L63.3666 69.7362C63.4893 70.8525 65.0755 70.9499 65.3338 69.857L75.8048 25.5566C76.0581 24.485 77.6045 24.5499 77.767 25.6391L81.8728 53.1476C81.9459 53.6375 82.3665 54 82.8618 54H122H128" stroke="#D2DFCE" stroke-width="4" stroke-linecap="round"/>
</g>
<defs>
<filter id="filter0_d_126_207" x="0" y="0" width="134" height="115.234" filterUnits="userSpaceOnUse" color-interpolation-filters="sRGB">
<feFlood flood-opacity="0" result="BackgroundImageFix"/>
<feColorMatrix in="SourceAlpha" type="matrix" values="0 0 0 0 0 0 0 0 0 0 0 0 0 0 0 0 0 0 127 0" result="hardAlpha"/>
<feOffset dy="4"/>
<feGaussianBlur stdDeviation="2"/>
<feComposite in2="hardAlpha" operator="out"/>
<feColorMatrix type="matrix" values="0 0 0 0 0 0 0 0 0 0 0 0 0 0 0 0 0 0 0.25 0"/>
<feBlend mode="normal" in2="BackgroundImageFix" result="effect1_dropShadow_126_207"/>
<feBlend mode="normal" in="SourceGraphic" in2="effect1_dropShadow_126_207" result="shape"/>
</filter>
</defs>
</svg>
