<svg width="105" height="101" viewBox="0 0 105 101" fill="none" xmlns="http://www.w3.org/2000/svg">
<path d="M94.9775 35.5557C85.4798 35.5557 81.5967 28.7211 86.3193 20.3379C89.048 15.4789 87.4213 9.285 82.6462 6.50842L73.5682 1.22224C69.4228 -1.28737 64.0705 0.207717 61.6042 4.42598L61.027 5.4405C56.3043 13.8236 48.5382 13.8236 43.7631 5.4405L43.1859 4.42598C40.8246 0.207717 35.4723 -1.28737 31.3268 1.22224L22.2489 6.50842C17.4738 9.285 15.8471 15.5323 18.5757 20.3913C23.3508 28.7211 19.4678 35.5557 9.97002 35.5557C4.51274 35.5557 0 40.0944 0 45.7009V55.0986C0 60.6517 4.46027 65.2438 9.97002 65.2438C19.4678 65.2438 23.3508 72.0784 18.5757 80.4616C15.8471 85.3206 17.4738 91.5145 22.2489 94.2911L31.3268 99.5773C35.4723 102.087 40.8246 100.592 43.2909 96.3735L43.8681 95.359C48.5907 86.9759 56.3568 86.9759 61.1319 95.359L61.7091 96.3735C64.1754 100.592 69.5277 102.087 73.6732 99.5773L82.7511 94.2911C87.5262 91.5145 89.1529 85.2672 86.4243 80.4616C81.6492 72.0784 85.5322 65.2438 95.03 65.2438C100.487 65.2438 105 60.7051 105 55.0986V45.7009C104.948 40.1478 100.487 35.5557 94.9775 35.5557ZM52.4738 67.7534C43.081 67.7534 35.4198 59.9576 35.4198 50.3997C35.4198 40.8419 43.081 33.0461 52.4738 33.0461C61.8666 33.0461 69.5277 40.8419 69.5277 50.3997C69.5277 59.9576 61.8666 67.7534 52.4738 67.7534Z" fill="#8C8B8B"/>
</svg>
