<svg width="116" height="106" viewBox="0 0 116 106" fill="none" xmlns="http://www.w3.org/2000/svg">
<path d="M57.5761 87.1661C43.2122 87.1661 31.5347 76.6765 31.5347 63.7737C31.5347 50.871 43.2122 40.3811 57.5761 40.3811C71.94 40.3811 83.6175 50.871 83.6175 63.7737C83.6175 76.6765 71.94 87.1661 57.5761 87.1661ZM57.5761 47.7684C47.7626 47.7684 39.7583 54.9585 39.7583 63.7737C39.7583 72.589 47.7626 79.7791 57.5761 79.7791C67.3896 79.7791 75.3939 72.589 75.3939 63.7737C75.3939 54.9585 67.3896 47.7684 57.5761 47.7684Z" fill="#5A83BF"/>
<path d="M52.0928 72.393C50.7222 72.393 49.3516 71.7528 48.5841 70.6202C47.4328 68.8473 48.0358 66.5819 50.0095 65.5477L54.1761 63.2823C54.6147 63.0853 54.834 62.6421 54.834 62.2481V57.6681C54.834 55.649 56.698 53.9746 58.9458 53.9746C61.1936 53.9746 63.0576 55.5998 63.0576 57.6189V62.1989C63.0576 65.203 61.2484 68.0593 58.3976 69.586L54.2309 71.8513C53.573 72.2453 52.8055 72.393 52.0928 72.393Z" fill="#5A83BF"/>
<path d="M79.5067 105.88H35.6476C10.3189 105.88 5.60401 95.2922 4.39788 84.9995L0.286075 45.5525C-0.316989 40.3816 -0.481462 32.7483 5.22024 27.0357C10.1544 22.1109 18.3232 19.7471 30.1652 19.7471H84.9891C96.8859 19.7471 105.055 22.1602 109.934 27.0357C115.636 32.7483 115.471 40.3816 114.868 45.6018L110.756 84.9503C109.55 95.2922 104.835 105.88 79.5067 105.88ZM30.1652 27.0849C20.8999 27.0849 14.5403 28.7101 11.3057 31.9604C8.61933 34.6197 7.74215 38.7072 8.45486 44.8138L12.5667 84.2608C13.4987 92.0419 15.8561 98.4932 35.6476 98.4932H79.5067C99.2434 98.4932 101.656 92.0419 102.588 84.2116L106.699 44.8631C107.412 38.7072 106.535 34.6197 103.849 31.9604C100.614 28.7101 94.2544 27.0849 84.9891 27.0849H30.1652Z" fill="#5A83BF"/>
<path d="M79.5057 27.0859C77.2579 27.0859 75.3939 25.4115 75.3939 23.3924V19.4526C75.3939 10.6866 75.3939 7.38707 61.962 7.38707H53.1902C39.7583 7.38707 39.7583 10.6866 39.7583 19.4526V23.3924C39.7583 25.4115 37.8943 27.0859 35.6465 27.0859C33.3987 27.0859 31.5347 25.4115 31.5347 23.3924V19.4526C31.5347 10.7851 31.5347 0 53.1902 0H61.962C83.6175 0 83.6175 10.7851 83.6175 19.4526V23.3924C83.6175 25.4115 81.7535 27.0859 79.5057 27.0859Z" fill="#5A83BF"/>
<path d="M79.5631 64.7125C77.6991 64.7125 76.0543 63.5798 75.5609 61.9054C75.0127 59.9355 76.3285 57.9163 78.5214 57.4239C89.2121 55.0108 99.1353 50.8248 108.017 45.0136C109.826 43.8317 112.403 44.1764 113.773 45.8508C115.089 47.4759 114.705 49.7906 112.841 51.0217C103.083 57.3746 92.2274 61.9546 80.4951 64.614C80.221 64.6632 79.892 64.7125 79.5631 64.7125Z" fill="#5A83BF"/>
<path d="M35.6503 64.8592C35.3213 64.8592 34.9924 64.81 34.6634 64.7608C23.6438 62.3476 13.2821 58.1616 3.79749 52.3505C1.93347 51.2178 1.44005 48.9032 2.70101 47.2288C3.96196 45.5544 6.53869 45.1111 8.40271 46.2438C17.0649 51.5625 26.4947 55.3546 36.5823 57.5707C38.7753 58.0631 40.1459 60.033 39.5976 62.0522C39.2138 63.7266 37.5143 64.8592 35.6503 64.8592Z" fill="#5A83BF"/>
</svg>
